<?xml version="1.0" encoding="utf-8"?>
<!-- Generator: Adobe Illustrator 27.8.0, SVG Export Plug-In . SVG Version: 6.00 Build 0)  -->
<svg version="1.1" xmlns="http://www.w3.org/2000/svg" xmlns:xlink="http://www.w3.org/1999/xlink" x="0px" y="0px"
	 viewBox="0 0 600 318.2" style="enable-background:new 0 0 600 318.2;" xml:space="preserve">
<style type="text/css">
	.st0{fill:#FEB031;}
</style>
<g id="xdh">
</g>
<g id="Layer_1">
	<g>
		<g>
			<path d="M289.8,119.3c-5-12.2-12.7-22.2-23-29.7c-10.3-7.5-23.1-11.4-38-11.4c-9,0-16.8,1.2-23.1,3.5c-5.6,2.1-11.7,5.2-17.9,9.3
				V15L154.6,0v230.2l0.9,0.4c19.2,7.6,38.9,11.4,58.5,11.4c16.2,0,30.7-3.3,43.3-9.7c12.6-6.5,22.5-16.1,29.5-28.7
				c6.9-12.5,10.5-27.7,10.5-45.2C297.3,144.6,294.8,131.4,289.8,119.3z M263.7,159.7c0,14.2-4.1,26.4-12.2,36.2
				c-8,9.7-19.3,14.7-33.4,14.7c-10.1,0-20.3-1.5-30.4-4.5v-82.5c11.4-9.8,22.7-14.8,33.5-14.8c8.7,0,16.4,2.2,22.8,6.6
				c6.4,4.4,11.3,10.5,14.7,18.2C262.1,141.4,263.7,150.2,263.7,159.7z"/>
			<path d="M316.5,260.2c0,7.5-1.9,14.2-5.6,20c-3.7,5.8-9.2,10.1-16.3,12.9l-2,0.8l24.7,24.4l0.9-0.4
				c21.1-10.1,31.8-28.7,31.8-55.2V81.1h-33.5V260.2z"/>
			<path d="M346.3,20.8c-3.8-3.3-8.5-5-13.9-5c-5.5,0-10.1,2-13.7,5.9c-3.5,3.9-5.3,8.4-5.3,13.6c0,5.6,2,10.3,6,13.9
				c3.9,3.6,8.6,5.5,13.7,5.5c5.2,0,9.8-1.7,13.4-5.1c3.7-3.4,5.6-8.2,5.6-14.3C352.1,29,350.2,24.1,346.3,20.8z"/>
			<path d="M444.3,149.5L426,139.3c-5.8-3.2-10.6-6.5-14.2-9.8c-3.4-3.1-5.1-6.4-5.1-9.9c0-4.4,1.8-7.5,5.6-9.4
				c4.1-2,8.6-3.1,13.3-3.1c10.5,0,25,5.5,43,16.4l2.2,1.3V91.1l-0.8-0.4c-8.7-4.3-16.4-7.5-22.9-9.5c-6.6-2-14.6-3-24-3
				c-14.3,0-26.5,3.6-36.2,10.8c-9.9,7.3-14.9,17.6-14.9,30.7c0,9.3,2.7,17.7,7.9,24.9c5.2,7.1,13.7,14.2,25.2,21l18.8,10.9
				c4.8,2.8,8.6,5.2,11.4,7.3c2.6,1.9,4.7,4.1,6.3,6.4c1.5,2.2,2.2,4.8,2.2,7.7c0,4.3-2.3,7.8-7.1,10.5c-4.9,2.8-10,4.3-14.9,4.3
				c-4.9,0-12.2-2-21.6-5.9c-9.5-3.9-18.6-8.7-26.9-14.2l-2.2-1.5v36.6l0.9,0.4c1.9,0.8,5.5,2.3,10.9,4.6c5.4,2.3,9.9,4.1,13.4,5.2
				c3.5,1.1,7.6,2.1,12.2,2.8c4.6,0.8,9.6,1.1,15.1,1.1c15.3,0,28.4-4,38.9-11.9c10.6-8,16-19.2,16-33.3
				C478.5,178.6,467,162.7,444.3,149.5z"/>
			<path d="M565.8,149.5l-18.3-10.2c-5.8-3.2-10.6-6.5-14.2-9.8c-3.4-3.1-5.1-6.4-5.1-9.9c0-4.4,1.8-7.5,5.6-9.4
				c4.1-2,8.6-3.1,13.3-3.1c10.5,0,25,5.5,43,16.4l2.2,1.3V91.1l-0.8-0.4c-8.7-4.3-16.4-7.5-22.9-9.5c-6.6-2-14.6-3-24-3
				c-14.3,0-26.5,3.6-36.2,10.8c-9.9,7.3-14.9,17.6-14.9,30.7c0,9.3,2.7,17.7,7.9,24.9c5.2,7.1,13.7,14.2,25.2,21l18.8,10.9
				c4.8,2.8,8.6,5.2,11.4,7.3c2.6,1.9,4.7,4.1,6.3,6.4c1.5,2.2,2.2,4.8,2.2,7.7c0,4.3-2.3,7.8-7.1,10.5c-4.9,2.8-10,4.3-14.9,4.3
				c-4.9,0-12.2-2-21.6-5.9c-9.5-3.9-18.6-8.7-26.9-14.2l-2.2-1.5v36.6l0.9,0.4c1.9,0.8,5.5,2.3,10.9,4.6c5.4,2.3,9.9,4.1,13.4,5.2
				c3.5,1.1,7.6,2.1,12.2,2.8c4.6,0.8,9.6,1.1,15.1,1.1c15.3,0,28.4-4,38.9-11.9c10.6-8,16-19.2,16-33.3
				C600,178.6,588.5,162.7,565.8,149.5z"/>
		</g>
		<g>
			<path class="st0" d="M122.5,54.4c0-11.9,2.9-33.2,3.8-39.4l0.2-1.1L96.1,0.2l-0.4,1.7C91.3,19.7,89,37.4,89,54.4
				c0,16.9,2.2,34.4,6.5,52.1l0.4,1.7l30.5-13.8l-0.2-1.1C123.7,80.1,122.5,67.1,122.5,54.4z"/>
			<path class="st0" d="M82,13.9L51.5,0.2l-0.4,1.7c-4.4,17.8-6.6,35.5-6.6,52.6c0,16.9,2.2,34.4,6.5,52.1l0.4,1.7l30.5-13.8
				l-0.2-1.1C79.2,80.1,78,67.1,78,54.4c0-11.9,2.9-33.2,3.8-39.4L82,13.9z"/>
			<path class="st0" d="M37.5,13.9L7,0.2L6.6,1.9C2.2,19.7,0,37.4,0,54.4c0,16.9,2.2,34.4,6.5,52.1l0.4,1.7l30.5-13.8l-0.2-1.1
				c-2.5-13.1-3.7-26.2-3.7-38.8c0-11.9,2.9-33.2,3.8-39.4L37.5,13.9z"/>
		</g>
	</g>
</g>
</svg>
